<?xml version="1.0" encoding="UTF-8"?><svg id="a" xmlns="http://www.w3.org/2000/svg" viewBox="0 0 273.14520072977848 278.538531105734364"><defs><style>.c{fill:#007499;}.d{fill:#88f3ff;}.e{fill:#009699;}</style></defs><path class="d" d="M88.267870557368042,173.255388507785028c.033843816400804-.001519028286566.056784595739373-.002859347365302.056784595739373-.002859347365302,0,0-.022348759226588.000938223354751-.056784595739373.002859347365302Z"/><path class="d" d="M70.065570859927902,173.255388507785028c-.034435836511875-.001921124010551-.056784595738463-.002859347365302-.056784595738463-.002859347365302,0,0,.022940779338569.001340319078736.056784595738463.002859347365302Z"/><path class="e" d="M166.583784093713803,183.376481366884036c-20.353799454333057.981202919854695-30.236440518349809-19.006439365835831-30.796146199201758-25.036579576000804,1.914445037062251.135684968019632,3.894554971542675.20819623015268,5.935988322620688.20819623015268,20.468355345998134,0,39.473434315261329-7.147296161852864,40.832317812255496-14.870616786209212-5.538545487457668,1.017391534966009-11.602015474187283,1.605612901084896-17.794397840298188,1.605612901084896-16.473896980562131,0-29.247273581277113-4.147528032906848-34.883255712160462-9.53654895066029-.097880658511713-.138678347292625-.184216924839347-.289285534379815-.285255023947684-.42461308397651-8.024931287684012-10.746276273351214-13.390705572464867-16.259589446955943-13.906651100041927-19.530191384296813-.51594552757615-3.27060193734178,1.826135370361044-.982498561629654-.412736688056611-11.120046586961507-.825522711123995-3.737837168004262-7.635924739114671-7.662604170116538-7.635924739114671-7.662604170116538,0,0,7.842293083142977-7.195324262151189,7.739084243624347-9.531455738165278-.103159504509676-2.336176153316956-19.116280080293109,6.317772684345073-20.843942772030459,5.700198330409876-1.960573270785972-.700852845995541-3.714778197543637-1.635323307322324-10.937916913591835-.280350073858244-2.083022763943518.390747688599731-7.945452587652653,2.990296540784584-10.318762546496146,7.475674336008524-2.373309958842583,4.485422472527716-3.921146541571034,8.129794723477971-3.921146541571034,8.129794723477971,0,0-7.11997921153943,4.8591927861371-3.198832669967487,13.736572814136707,0,0,.722313871605365-2.803411383980347,2.476518798362122-2.990296540785494,1.754204926757666-.186885156805147,3.301992174476254.467235230663391,4.746619917686075.373770313609384,1.444627743209821-.09342023975114-5.365774284780855,8.970844945053614-5.262565445262226,12.895567269863932.101827459257947,3.872673267272148.209723124663469,5.562547561076826,3.384874990151729,7.671539630639018-.285205688938731-.134076585124603-.99523514322027-.073270776276331-1.321142214856081,3.541971873375587-.382099647263203,4.238759084833873-1.194795255961253,26.329093940417806,12.355459736678313,40.707947656832403,12.010312011404494,16.141864754583366,32.380540023845242,26.759961846757506,55.490587779443558,26.759961846757506,36.928882539032202,0,66.865711545719023-27.110455285710486,66.865711545719023-60.552935315297873,0,0-7.083619309662026,31.224207277851747-38.308486739944783,32.729430279980079ZM75.991830525860678,104.251146680578131c.628725358905285-2.8062260540446,2.236158632905244-5.081104948185384,3.590305969002657-5.081104948185384,1.354147336098322,0,1.942269982324433,2.274878894140784,1.313544623419148,5.081104948185384s-2.236158632904335,5.081149625488251-3.590355304011609,5.081149625488251c-1.354147336098322,0-1.94222064731548-2.274923571443651-1.313495288410195-5.081149625488251ZM84.819442415348931,159.007067950713463c0-5.450452208835486-2.854523639850413-9.868948082055795-6.375711260781827-9.868948082055795,3.521187620931414,0,6.375711260781827-4.418406518616393,6.375711260781827-9.868858727453699,0,5.450452208837305,2.854523640375191,9.868913739415802,6.37576059579078,9.868858727453699-3.537278181742295.000055262573369-6.37576059579078,4.418495873220309-6.37576059579078,9.868948082055795ZM100.34072970075249,167.952178769466627c0-3.787473651198525-1.983563385133493-6.857787240955076-4.430382507878676-6.857787240955076,2.446819122745183,0,4.430382507878676-3.070313589756552,4.430382507878676-6.85774256365039,0,3.787428973893839,1.983563385133493,6.85774256365039,4.430431842888538,6.85774256365039-2.446868457755045,0-4.430431842888538,3.070313589756552-4.430431842888538,6.857787240955076ZM99.347122612840394,143.557790741140707c0-6.195535584412937-3.244763563653578-11.21806858887885-7.24731287061968-11.21806858887885,4.002549306966102,0,7.24731287061968-5.02239897256004,7.24731287061968-11.217979234275845,0,6.195580261715804,3.244714228644625,11.217979234275845,7.24731287062059,11.217979234275845-4.002598641975965,0-7.24731287062059,5.022533004465913-7.24731287062059,11.21806858887885Z"/><path class="e" d="M180.245191051443726,84.544280024069849c-17.335532918516037-15.632981746527548-52.674002761767952-21.820973296808006-50.458860842837566-9.596498009900643.047953629068616.264583655038223.129159054426964.496359528871835.233897279234952.708648074019948-7.00497930479014,1.809016122123467-11.515185857765573,5.054174365851395-9.37320775767148,8.716065433392032,1.67517024180961,2.863847956614336,6.820959719987513-2.268966414108945,22.518224983671644-.68417790939202-10.269575542193706,2.370892543385708-18.07417667820846,7.360586052041981-14.766461642650029,11.731717213715456,2.14557955577493,2.835332321221358,7.157967168723189-3.923021271925791,25.844440647730153-3.316249992172743.070453353424455.002287664382493.140814731590581.004658117844883.211084163656778.007110934574484,11.490212625054482.401076043101966,22.419287197759331,5.199271022957873,30.565290626867863,13.312746005621193,15.724801811684301,15.662009869837675,19.835917931330187,29.889026941517841,19.835917931330187,29.889026941517841,0,0,2.05722055406477-26.71998905831515-24.610325389332502-50.768388691375549Z"/><path class="d" d="M136.585980803270104,59.50505225987672c44.052574210023522,0,79.764226397601306,35.711639853826455,79.764226397601306,79.764214063850886,0,44.052537208767717-35.711652187577783,79.764214063848158-79.764226397601306,79.764214063848158-44.052537208766807,0-79.764214063849977-35.711676855080441-79.764214063849977-79.764214063848158,0-44.052574210024432,35.711676855083169-79.764214063850886,79.764214063849977-79.764214063850886M136.585980803270104,53.038612375217781c-47.54775611416153,0-86.230652406789886,38.682897834347386-86.230652406789886,86.230653948509826,0,47.547762281038558,38.682896292628357,86.230652406788977,86.230652406789886,86.230652406788977,47.547762281037649,0,86.230664740542124-38.682890125750419,86.230664740542124-86.230652406788977,0-47.547756114162439-38.682902459504476-86.230653948509826-86.230664740542124-86.230653948509826h0Z"/><polygon class="c" points="135.56467631383839 4.300476893641644 189.180809426395172 48.654101253706358 81.948611322409306 48.654120037987013 135.56467631383839 4.300476893641644"/><polygon class="c" points="135.5646763138393 274.328990634203365 189.180809426395172 229.975366274138651 81.948611322410216 229.975347489858905 135.5646763138393 274.328990634203365"/><polygon class="c" points="273.14520072977848 139.269299615423733 228.791576372122108 85.653166500875159 228.791557583027497 192.885364604861024 273.14520072977848 139.269299615423733"/><polygon class="c" points="0 139.269299613431031 44.353624360063804 85.653166500875159 44.35364314434355 192.885364604861024 0 139.269299613431031"/><polygon class="c" points="162.12714805097221 36.552124444854599 237.90791703702871 112.420616478160809 231.398405815906699 43.141738233635806 162.12714805097221 36.552124444854599"/><polygon class="c" points="40.34900131393988 233.970241601427915 109.62025902894402 240.559941706940663 33.839533226218009 164.691406540234311 40.34900131393988 233.970241601427915"/><polygon class="c" points="239.723284408270956 166.592986332627333 163.854835558296145 242.373712185282784 233.133670619489749 235.864244097561823 239.723284408270956 166.592986332627333"/><polygon class="c" points="33.512989511949854 111.880983743939396 109.381438361923756 36.100257891283945 40.102603300730152 42.609725979006726 33.512989511949854 111.880983743939396"/></svg>