<?xml version="1.0" encoding="UTF-8"?><svg id="b" xmlns="http://www.w3.org/2000/svg" viewBox="0 0 209.246564415063403 209.96071355253298"><defs><style>.d{fill:#007499;}</style></defs><g id="c"><path class="d" d="M107.185568054195755.02259752597638C47.720338169605384-1.194946980343957,1.195074164603284,46.961037197046608.02252029286683,102.590224018596928c-1.214430856347462,59.575714107759268,46.860279382664885,106.304225912830589,102.514712953146955,107.353833211349411,59.339601027459139,1.049607298520641,107.372438774760667-47.652171352799996,106.70240542353713-104.960729851989527C209.742154098108585,47.758736181396671,162.965636871740571,1.282126284197147,107.185568054195755.02259752597638ZM184.113471067386854,104.983327377956812v30.858454576489748c0,21.495962598719416-15.201318555595208,42.236200254950745-38.359265584749664,47.52622360200985-3.517659119163.797698984360977-7.244702861844416,1.133581007439716-10.929879903680558,1.133581007439716-20.310308481399261.08397370890998-40.620616962787608,0-60.972804924858792,0-20.35218796206027,0-43.300740782822686-16.415860711369533-47.739694162450178-40.388893972080041-.544399701659131-2.896913581398621-.795662208362046-5.961774580629935-.795662208362046-8.942649058350071-.083754168903397-20.404368445748332,0-40.766750037029851,0-61.171112076479403s16.248244868143956-43.411758507409104,40.201850910700159-47.904076463819365c2.889505248607747-.545795474910847,5.946522029975313-.797702187501272,8.919786239915993-.797702187501272,20.394061052822508-.083968904200447,40.788128495554702,0,61.224062639128533,0,20.43593414357747,0,43.300737587884214,16.373873856909995,47.697814681789168,40.430874420240798.544394909218681,2.89691358140044.753779532744375,5.961768174329336.79565901341266,8.94265546465067.083758961329295,7.557172549339157.041879480661009,15.156325546849985.041879480661009,22.713498096189142v7.557172549339157h-.041879480661009l-.041866700845276.041974041871072Z"/><path class="d" d="M168.786526849613438,67.029530025996792c-3.852682184689911-16.247919699821068-17.923318661349185-27.289789761511202-34.632221842057334-27.289789761511202-16.708903180719062,0-38.652402779698605-.041983651308328-57.999540714914474,0-1.800709040253423,0-3.643291171254532.125954157081651-5.402120730843308.335875616779958-17.672060947061254,2.015247294420988-31.156432618696272,17.087605538650678-31.156432618696272,34.930929613481567-.041876285711623,20.026505974499742-.041876285711623,40.053011948999483,0,60.037537475338468,0,1.931279991791598.125632052091532,3.904534025461544.502521818460082,5.793827162789967,3.350153976320144,17.675389469601214,17.588305180692259,29.472965254890369,35.51163662185354,29.472965254890369h58.753320247655211c1.926341092341318-.041986854459537,3.894548885538825-.125947750790147,5.779010497208219-.461829773868885,17.002033985751041-2.728978976150756,29.690737059110688-17.591415760671225,29.690737059110688-34.846962310861272,0-17.255546550179133,0-39.969044646368275-.083758961340209-59.995550620869835,0-2.686992121698495-.376889766372187-5.373990649690313-.963164156259154-7.977015468748505h0l.00001277982301.000012812579371ZM144.330405378492287,105.948967373857158c-.460648727701482,21.160086981939457-18.048957103346766,39.339280267269714-40.704369534214493,38.793489597068401-20.980335442705837-.503816628328423-39.15492459815141-18.095232388999648-38.568643818347482-40.892697787818179.544401299135643-21.034132824850531,17.923325051247957-38.709515888151145,39.741198988038377-38.541581282901461,21.692241884698888-.083967302620295,40.034342572904279,17.969278231921635,39.531814364523598,40.682782734400462h0v-.041993260749223ZM147.513054211955023,67.155477776786938c-2.51261548223556-.083967302620295-5.06711044513213-2.645011673530462-5.06711044513213-5.164069189970178,0-2.51905751645063,2.34511033938179-4.996128178439903,5.06711044513213-5.038115032899441,2.889505248611385,0,5.108989925804053,2.099214597039463,5.108989925804053,5.038115032899441,0,2.938900435850883-2.386989820050076,5.248036492590472-5.108989925804053,5.164069189970178Z"/><path class="d" d="M104.840464104734565,79.750765359025536c-13.986896685062675-.083967302618476-25.168027913110564,10.622027142280785-25.335539445863105,25.064621007390087-.083752571434161,14.232678811711594,10.846120942336711,25.400490217891274,25.126154822337412,25.442477072350812,14.154401827905531,0,24.874897108067671-10.957902759069839,25.335533055957058-25.148588310019477-.376889766372187-14.106724654620848-10.804241461679339-25.232562018929457-25.126154822348326-25.316529321560665h0l.000006389916962-.041980448160757Z"/></g></svg>